<svg xmlns="http://www.w3.org/2000/svg" viewBox="0 0 840 840"><defs><style>.cls-1{fill:#faa002;}.cls-1,.cls-3,.cls-5{stroke:orange;}.cls-1,.cls-2,.cls-3,.cls-5{stroke-miterlimit:10;}.cls-1,.cls-2,.cls-3{stroke-width:5px;}.cls-2,.cls-3,.cls-4{fill:#fff;}.cls-2{stroke:#fff;}.cls-5{fill:none;stroke-width:10px;}</style></defs><title>Asset 10</title><g id="Layer_2" data-name="Layer 2"><g id="Layer_2-2" data-name="Layer 2"><rect class="cls-1" x="2.5" y="2.5" width="835" height="835"/><g id="back"><path class="cls-2" d="M776.57,429.72q0,42.5,0,85c0,6.51-.14,13-.26,19.54a20.6,20.6,0,0,1-.4,2.79,13.44,13.44,0,0,0-.27,1.38c-.21,3.3-.36,6.6-.63,9.89-.18,2.22-.48,4.44-.83,6.64s-.86,4.36-1.25,6.55c-.59,3.35-1,6.74-1.73,10.06-1.41,6.53-2.73,13.1-4.55,19.53a210.84,210.84,0,0,1-7.08,21.9c-1.81,4.48-3.41,9-5.24,13.51-1.21,3-2.68,5.79-4,8.68a272.2,272.2,0,0,1-21.51,37.94q-6.67,9.86-14.2,19a236.37,236.37,0,0,1-16.72,18.39c-4.8,4.74-9.66,9.42-14.81,13.79A260.66,260.66,0,0,1,647.3,750a285.62,285.62,0,0,1-44.38,21.35,256,256,0,0,1-25.26,8.11c-6.69,1.76-13.4,3.5-20.24,4.66-5.33.91-10.63,1.91-16,2.7-4.9.72-9.82,1.17-14.73,1.67-3.64.37-7.32.47-11,.48q-81.6,0-163.2,0c-4.49,0-9-.47-13.45-.77-3.18-.21-6.37-.38-9.53-.8-3.83-.5-7.64-1.23-11.45-1.9s-7.62-1.41-11.44-2.12a278,278,0,0,1-56.12-17.9A278.71,278.71,0,0,1,215.72,747a261.68,261.68,0,0,1-49.07-39.66c-3.12-3.23-6.09-6.61-9-10-3.46-4-6.86-8.14-10.15-12.32-4.55-5.76-8.66-11.84-12.64-18a191.92,191.92,0,0,1-11.63-20.28c-2.41-5-5.19-9.82-7.44-14.88A284,284,0,0,1,104.86,603a267.5,267.5,0,0,1-7.54-28.64c-.95-4.73-1.85-9.46-2.73-14.2-.25-1.39-.32-2.81-.49-4.21-.44-3.74-1.06-7.48-1.31-11.21-.28-4.12-.83-8.2-1-12.34-.74-22-.18-44.08-.3-66.12s0-44.09,0-66.14,0-44.09,0-66.14a106.16,106.16,0,0,1,.47-11.7c.53-4.68.77-9.39,1.46-14,.66-4.43,1.06-8.89,1.8-13.3.66-3.94,1.51-7.84,2.33-11.75q2.4-11.58,5.91-22.87c1.79-5.74,3.79-11.42,5.81-17.09,1.27-3.56,2.67-7.08,4.14-10.56a304.57,304.57,0,0,1,14.36-29.25A251.7,251.7,0,0,1,146.41,175c4.75-6.35,9.94-12.36,15.21-18.28a233.41,233.41,0,0,1,20.52-20.13A277.25,277.25,0,0,1,261.9,88.22a258.71,258.71,0,0,1,30.26-9.85c4.32-1.09,8.63-2.25,13-3.19s8.55-1.61,12.82-2.4c2.19-.41,4.38-.86,6.58-1.19,1.4-.22,2.82-.3,4.23-.38,3.54-.18,7-1.18,10.56-1,3.79-1.23,7.78-.28,11.62-1a14.89,14.89,0,0,1,2.84-.09q80,0,160,0c3.67,0,7.34.15,11,.46,3.28.28,6.53.89,9.79,1.3,1.64.21,3.3.28,4.94.45a230.93,230.93,0,0,1,33.19,6.29C578.4,79,584,80.7,589.65,82.49A263.76,263.76,0,0,1,614.86,92q12.85,5.61,25.15,12.37c7.15,3.93,14,8.32,20.81,12.92a268.77,268.77,0,0,1,27.34,21.51c2.92,2.59,5.67,5.38,8.47,8.11A225.9,225.9,0,0,1,714.16,166a281.76,281.76,0,0,1,21.55,30.34A264.55,264.55,0,0,1,750,222.85c3.57,7.69,6.9,15.51,9.8,23.51a304.05,304.05,0,0,1,9.71,33.26c1.41,5.94,2.49,11.94,3.5,18,.54,3.24.8,6.55,1.49,9.72.63,2.92.09,5.91,1,8.76a15.24,15.24,0,0,1,.11,3.19c.09,1.16.33,2.31.44,3.48a34.7,34.7,0,0,1,.25,3.52q.21,51.74.38,103.47ZM577.33,648.55c.71,0,1,.09,1.16,0,2.77-1.59,5.57-3.14,8.28-4.82A139.93,139.93,0,0,0,606.1,629.3a134.71,134.71,0,0,0,20.82-23.67,137.29,137.29,0,0,0,13.63-24.41c1.49-3.46,2.92-7,4.22-10.5a138.3,138.3,0,0,0,5.55-19.38c.95-4.61,1.94-9.19,2.47-13.88a62.56,62.56,0,0,1,.68-6.66,39.33,39.33,0,0,0,.55-7.39,8,8,0,0,1,.12-2.47c.82-2.08.59-4.2.59-6.32q0-50.13,0-100.28,0-35.55,0-71.11a11.8,11.8,0,0,0-.15-3.53,21.43,21.43,0,0,1-.57-5.62c-.22-3.52-.52-7-.83-10.55a44.5,44.5,0,0,0-.62-4.91c-.83-4.14-1.88-8.25-2.6-12.41-1.42-8.08-4.15-15.75-7.12-23.33a148.85,148.85,0,0,0-8.7-18.21,158.53,158.53,0,0,0-12.73-19.17,133.46,133.46,0,0,0-12.68-13.89,130.61,130.61,0,0,0-23-17.77,147.08,147.08,0,0,0-29.18-13.69A190.72,190.72,0,0,0,524,192.38c-3.32.22-6.51-1.15-9.85-.76a2.75,2.75,0,0,1-1.4-.1c-1.94-.83-4-.58-6-.58q-71.3,0-142.58,0c-3.06,0-6.16-.41-9.15.64a2.51,2.51,0,0,1-1.06,0c-3.45-.39-6.84.46-10.19.89a148.72,148.72,0,0,0-17.3,3.23,172.53,172.53,0,0,0-24.51,8,141.5,141.5,0,0,0-24.34,13.08,123.41,123.41,0,0,0-16.19,12.71c-2.66,2.52-5.27,5.11-7.76,7.8-2.65,2.86-5.23,5.8-7.66,8.85a135.37,135.37,0,0,0-15.44,24.58c-1.88,3.81-3.73,7.66-5.27,11.62a168.31,168.31,0,0,0-5.81,17.45c-1.65,6.13-3,12.33-4,18.58-.55,3.35-.77,6.75-1.41,10.1a10.69,10.69,0,0,0,.1,4.4c.37,0,.51.08.59,0a5.07,5.07,0,0,0,.87-.58,169.75,169.75,0,0,1,33.13-23.11A184.46,184.46,0,0,1,277.43,297c6.5-2.15,13.13-3.73,19.78-5.23a101.85,101.85,0,0,1,12.85-2.12c3.27-.3,6.51-1.2,9.85-.82a1.94,1.94,0,0,0,1-.16,8.91,8.91,0,0,1,4.18-.53H429.31a7.56,7.56,0,0,1,2.48.09c3.29,1.18,6.79.32,10.14,1.24,2.34.65,4.89.57,7.33.88a45.34,45.34,0,0,1,4.52.76c4.58,1.06,9.13,2.2,13.7,3.27A145.28,145.28,0,0,1,494.86,304a165.7,165.7,0,0,1,56.61,41.47,150.62,150.62,0,0,1,15.92,21.3,180.33,180.33,0,0,1,13.85,26.72A163.73,163.73,0,0,1,588.75,416c1.47,5.79,3.07,11.57,3.53,17.58,1,2,.49,4.19.9,6.27A90.54,90.54,0,0,1,594.36,450c.15,2,0,4,0,6a22.72,22.72,0,0,0,.23,2.46,27.62,27.62,0,0,1,.45,3.48q0,54.41,0,108.81a7.92,7.92,0,0,1-.22,2.81,12.87,12.87,0,0,0-.48,4.56c0,2.25.45,4.63-.13,6.72-.87,3.13-.5,6.31-1.14,9.45-.87,4.24-1.29,8.58-2.13,12.84a147.26,147.26,0,0,1-4.84,18.77c-1.8,5.37-3.36,10.84-5.95,15.93C579.14,643.9,578.36,646.11,577.33,648.55ZM238,516.56c0,18.13.1,36.27-.05,54.4a98.76,98.76,0,0,0,1.58,18.28,91.55,91.55,0,0,0,6,21,13.9,13.9,0,0,0,2.33,3.94c1.77,1.9,3.48,3.87,5.12,5.88a95.92,95.92,0,0,0,12.73,12.36,135.75,135.75,0,0,0,31.44,19.81c4.2,1.91,8.51,3.55,12.82,5.2a138.31,138.31,0,0,0,17.94,5.32A93.91,93.91,0,0,0,338.59,665c4.56.5,9.07,1.61,13.7,1.43a3.3,3.3,0,0,1,1.41.12c1.81.82,3.72.57,5.6.57,17.89,0,35.79.09,53.69,0,6.6,0,13.21.52,19.81-.57,2.54-.42,5.14-.66,7.67-1.14A101.61,101.61,0,0,0,463.63,658a86.47,86.47,0,0,0,39.45-36,112.54,112.54,0,0,0,8.8-20.06c1.85-5.5,2.66-11.21,3.75-16.87a44.2,44.2,0,0,0,.8-8.44q.08-60.09,0-120.18a19.17,19.17,0,0,0-.11-2.84c-.39-2.67-.83-5.34-1.3-8-.51-2.89-.94-5.81-1.64-8.67a98.67,98.67,0,0,0-10.6-26.14,85.35,85.35,0,0,0-21.08-24.25,90,90,0,0,0-18.83-11.27,94.4,94.4,0,0,0-33.35-8.46,4.63,4.63,0,0,1-1.41-.15c-1.71-.71-3.49-.55-5.26-.56q-42.31,0-84.62,0a124.54,124.54,0,0,0-19.38,1.36,106.47,106.47,0,0,0-16.18,3.49,98.81,98.81,0,0,0-23.39,10.88,87.66,87.66,0,0,0-19.57,17.39c-1.07,1.26-2,2.62-3,4a94.87,94.87,0,0,0-10.07,17.45A93.42,93.42,0,0,0,240.82,438c-.63,3-1.22,6-1.7,9A64.14,64.14,0,0,0,238,457.18Q238,486.87,238,516.56Z"/><path class="cls-3" d="M480,518.09c0,9.75-.11,19.5,0,29.24a68.51,68.51,0,0,1-1.63,15.14A88.81,88.81,0,0,1,466,592.87a68.11,68.11,0,0,1-5.09,6.56c-1.78,2.14-3.71,4.14-5.53,6.24a57.94,57.94,0,0,1-13.75,11.05A94.23,94.23,0,0,1,412,628.33a87.2,87.2,0,0,1-17.94,1.51c-13.35.08-26.69,0-40,0-3.48,0-7,.06-10.43-.26a71.13,71.13,0,0,1-12.6-2.25,126.13,126.13,0,0,1-13.42-4.68,76.06,76.06,0,0,1-19.06-11.29c-3.78-3-7.62-6.06-10.51-10.07-1.61-2.25-3.56-4.26-5.17-6.51a83.59,83.59,0,0,1-11.64-24.36,87.27,87.27,0,0,1-3.31-16.27,130.18,130.18,0,0,1-.49-13.52c-.06-17.17,0-34.35,0-51.52a25.45,25.45,0,0,1,.53-6.56c.49-1.89.27-3.88.62-5.85a113.29,113.29,0,0,1,3.75-14.77,62.51,62.51,0,0,1,4.56-10.52c1.66-3,2.91-6.3,5-9.1a78.64,78.64,0,0,1,6-7.6c1.36-1.41,2.43-3.13,3.87-4.44a94,94,0,0,1,11.59-9.35,114.22,114.22,0,0,1,14.92-8.16,75.55,75.55,0,0,1,10.17-3.44c5.25-1.58,10.69-1.95,16.06-2.77a20.35,20.35,0,0,1,3.13-.1q26.28,0,52.57,0c4.32,0,8.5,1,12.74,1.59a70.22,70.22,0,0,1,22.88,7.86A66.2,66.2,0,0,1,450.76,426c2,1.9,4.26,3.59,6.14,5.62,6,6.48,11.27,13.51,14.9,21.63a94.49,94.49,0,0,1,7.26,23.49,57.43,57.43,0,0,1,.93,10C479.87,497.2,480,507.64,480,518.09Z"/></g><g id="front"><path class="cls-4" d="M752.8,432.5q0,42.5,0,85c0,6.51-.14,13-.26,19.54a19.13,19.13,0,0,1-.4,2.79c-.07.46-.23.92-.26,1.38-.22,3.3-.36,6.6-.63,9.89-.19,2.22-.48,4.44-.83,6.64s-.87,4.36-1.26,6.56c-.59,3.34-1,6.73-1.72,10.05-1.41,6.53-2.74,13.1-4.55,19.53a210.9,210.9,0,0,1-7.09,21.9c-1.8,4.48-3.4,9.05-5.24,13.51-1.21,3-2.67,5.79-4,8.68A272.2,272.2,0,0,1,705,675.9q-6.66,9.86-14.19,19.05a238.39,238.39,0,0,1-16.72,18.39c-4.81,4.74-9.67,9.42-14.81,13.79a261.37,261.37,0,0,1-35.77,25.61,285.62,285.62,0,0,1-44.38,21.35,255.84,255.84,0,0,1-25.25,8.11c-6.7,1.76-13.41,3.5-20.24,4.66-5.33.91-10.64,1.91-16,2.7-4.9.72-9.82,1.17-14.74,1.67-3.64.37-7.32.47-11,.48q-81.61,0-163.21,0c-4.48,0-9-.47-13.44-.77-3.18-.21-6.38-.38-9.53-.8-3.84-.5-7.64-1.23-11.45-1.9s-7.63-1.41-11.44-2.12a277.44,277.44,0,0,1-56.12-17.9A278.84,278.84,0,0,1,192,749.78a261.68,261.68,0,0,1-49.07-39.66c-3.11-3.23-6.09-6.61-9-10-3.45-4-6.86-8.14-10.15-12.32-4.54-5.76-8.65-11.84-12.63-18a188.49,188.49,0,0,1-11.63-20.28c-2.42-5-5.2-9.82-7.45-14.88A286.35,286.35,0,0,1,81.1,605.8a265.16,265.16,0,0,1-7.54-28.64c-1-4.72-1.86-9.46-2.73-14.2-.26-1.39-.33-2.81-.49-4.21-.45-3.74-1.07-7.48-1.32-11.21-.27-4.11-.82-8.2-1-12.34-.74-22-.19-44.08-.31-66.12s0-44.09,0-66.14,0-44.09,0-66.14a103.75,103.75,0,0,1,.46-11.7c.54-4.68.77-9.39,1.47-14,.66-4.43,1.06-8.89,1.8-13.3.66-3.94,1.51-7.84,2.32-11.75q2.4-11.58,5.92-22.87c1.79-5.74,3.78-11.42,5.8-17.09,1.27-3.56,2.68-7.08,4.15-10.56A298.67,298.67,0,0,1,104,206.25a250.46,250.46,0,0,1,18.62-28.47c4.75-6.35,9.93-12.35,15.21-18.28a232,232,0,0,1,20.52-20.13A277.08,277.08,0,0,1,238.13,91a259.48,259.48,0,0,1,30.27-9.85c4.32-1.09,8.63-2.25,13-3.19s8.54-1.61,12.81-2.4c2.2-.41,4.38-.85,6.59-1.19A42.33,42.33,0,0,1,305,74c3.53-.18,7-1.18,10.55-1,3.79-1.23,7.78-.28,11.62-1a14.92,14.92,0,0,1,2.84-.08q80,0,160,0c3.66,0,7.33.15,11,.46,3.28.28,6.53.89,9.8,1.3,1.64.21,3.29.28,4.94.45a231.05,231.05,0,0,1,33.18,6.29c5.71,1.43,11.35,3.09,17,4.88a261.75,261.75,0,0,1,25.21,9.49q12.85,5.61,25.15,12.37c7.16,3.93,14.06,8.32,20.81,12.92a270.3,270.3,0,0,1,27.35,21.51c2.91,2.59,5.67,5.38,8.47,8.11a224.38,224.38,0,0,1,17.52,19.09A279.35,279.35,0,0,1,712,199.09a264.47,264.47,0,0,1,14.25,26.54c3.58,7.7,6.91,15.51,9.8,23.51a304.1,304.1,0,0,1,9.72,33.26c1.4,5.94,2.48,11.94,3.49,18,.54,3.24.8,6.55,1.49,9.72.64,2.92.1,5.91,1,8.76a14,14,0,0,1,.11,3.19c.1,1.16.33,2.32.45,3.48s.24,2.35.25,3.52q.19,51.74.37,103.47ZM553.56,651.33c.72,0,1,.09,1.17,0,2.77-1.59,5.56-3.14,8.28-4.82a139.83,139.83,0,0,0,19.32-14.42,134.3,134.3,0,0,0,20.82-23.67A137.29,137.29,0,0,0,616.78,584c1.5-3.46,2.93-7,4.22-10.5a138.3,138.3,0,0,0,5.55-19.38c1-4.61,2-9.19,2.48-13.88a60.07,60.07,0,0,1,.67-6.66,38.52,38.52,0,0,0,.56-7.39,7.73,7.73,0,0,1,.12-2.47c.81-2.08.58-4.2.58-6.32q0-50.13,0-100.27V346a11.8,11.8,0,0,0-.16-3.53,21.86,21.86,0,0,1-.57-5.62c-.22-3.52-.51-7-.82-10.55a47.75,47.75,0,0,0-.63-4.91c-.82-4.14-1.87-8.25-2.6-12.41-1.42-8.08-4.15-15.75-7.12-23.33a150.27,150.27,0,0,0-8.69-18.21,158.6,158.6,0,0,0-12.74-19.17A132.35,132.35,0,0,0,585,234.39a129.88,129.88,0,0,0-23-17.77,147,147,0,0,0-29.17-13.69,190.6,190.6,0,0,0-32.55-7.77c-3.32.22-6.51-1.15-9.84-.76a2.78,2.78,0,0,1-1.41-.1c-1.93-.83-4-.58-6-.58q-71.28,0-142.58,0c-3.05,0-6.15-.41-9.15.64a2.51,2.51,0,0,1-1.06,0c-3.45-.39-6.83.46-10.18.89a146.47,146.47,0,0,0-17.31,3.24,171.64,171.64,0,0,0-24.51,8,141.41,141.41,0,0,0-24.33,13.08,122.93,122.93,0,0,0-16.19,12.71c-2.66,2.52-5.27,5.11-7.76,7.8-2.65,2.86-5.23,5.8-7.66,8.85a135.42,135.42,0,0,0-15.45,24.58c-1.88,3.81-3.72,7.66-5.26,11.62a168.37,168.37,0,0,0-5.82,17.45c-1.64,6.13-3,12.33-4,18.58-.56,3.35-.78,6.75-1.41,10.11a10.65,10.65,0,0,0,.09,4.39c.38,0,.51.08.59,0a4.79,4.79,0,0,0,.88-.58A169.15,169.15,0,0,1,225,312.07a183.64,183.64,0,0,1,28.63-12.28c6.49-2.14,13.12-3.73,19.77-5.23a103.69,103.69,0,0,1,12.85-2.12c3.28-.3,6.52-1.2,9.85-.82a1.94,1.94,0,0,0,1-.16,8.94,8.94,0,0,1,4.19-.53H405.55A7.5,7.5,0,0,1,408,291c3.29,1.18,6.79.32,10.14,1.25,2.35.64,4.89.56,7.34.87,1.51.19,3,.42,4.52.76,4.57,1.06,9.12,2.2,13.69,3.27a145,145,0,0,1,27.38,9.59,165.43,165.43,0,0,1,56.61,41.47,150.62,150.62,0,0,1,15.92,21.3,179.39,179.39,0,0,1,13.85,26.72A163.73,163.73,0,0,1,565,418.76c1.47,5.79,3.07,11.58,3.53,17.58,1,2,.5,4.19.9,6.27a86.08,86.08,0,0,1,1.18,10.13c.16,2,0,4,0,6,0,.82.14,1.64.24,2.46a29.55,29.55,0,0,1,.44,3.48q0,54.4,0,108.81a8.16,8.16,0,0,1-.22,2.81,12.64,12.64,0,0,0-.48,4.56c0,2.25.44,4.63-.14,6.72-.86,3.13-.5,6.31-1.14,9.45-.86,4.24-1.28,8.58-2.12,12.84a149,149,0,0,1-4.84,18.77c-1.81,5.37-3.36,10.84-5.95,15.93C555.38,646.68,554.59,648.89,553.56,651.33Zm-339.36-132c0,18.13.1,36.27-.06,54.4A99.63,99.63,0,0,0,215.72,592a91.58,91.58,0,0,0,6.06,21,13.32,13.32,0,0,0,2.33,3.94c1.76,1.9,3.47,3.87,5.12,5.88A94.63,94.63,0,0,0,242,635.24a135.81,135.81,0,0,0,31.45,19.81c4.19,1.91,8.51,3.55,12.81,5.2a138,138,0,0,0,18,5.32,93,93,0,0,0,10.67,2.19c4.56.5,9.06,1.61,13.7,1.43a3.26,3.26,0,0,1,1.4.12c1.82.82,3.72.57,5.6.58,17.9,0,35.8.08,53.69,0,6.6,0,13.21.52,19.82-.57,2.53-.42,5.13-.66,7.66-1.14a101.69,101.69,0,0,0,23.17-7.38,85.73,85.73,0,0,0,24-16.23,86.83,86.83,0,0,0,15.44-19.8,113.27,113.27,0,0,0,8.8-20.06c1.84-5.5,2.66-11.21,3.75-16.87a45.88,45.88,0,0,0,.8-8.44q.07-60.09,0-120.18a20.63,20.63,0,0,0-.11-2.84c-.39-2.67-.83-5.34-1.3-8-.51-2.89-1-5.81-1.65-8.67A98.34,98.34,0,0,0,479,413.53,85.16,85.16,0,0,0,458,389.28,90.32,90.32,0,0,0,439.13,378a94.56,94.56,0,0,0-33.35-8.46,4.56,4.56,0,0,1-1.4-.15,13.24,13.24,0,0,0-5.26-.55c-28.21,0-56.42,0-84.62,0a124.37,124.37,0,0,0-19.38,1.36,106,106,0,0,0-16.18,3.49,98.88,98.88,0,0,0-23.4,10.88A87.61,87.61,0,0,0,236,401.94c-1.07,1.26-2,2.62-3,4a95.45,95.45,0,0,0-10.07,17.45,93.39,93.39,0,0,0-5.86,17.44c-.64,3-1.22,6-1.71,9A64.12,64.12,0,0,0,214.19,460Q214.22,489.65,214.2,519.34Z"/><path class="cls-5" d="M752.8,432.5q0,42.5,0,85c0,6.51-.14,13-.26,19.54a19.13,19.13,0,0,1-.4,2.79c-.07.46-.23.92-.26,1.38-.22,3.3-.36,6.6-.63,9.89-.19,2.22-.48,4.44-.83,6.64s-.87,4.36-1.26,6.56c-.59,3.34-1,6.73-1.72,10.05-1.41,6.53-2.74,13.1-4.55,19.53a210.9,210.9,0,0,1-7.09,21.9c-1.8,4.48-3.4,9.05-5.24,13.51-1.21,3-2.67,5.79-4,8.68A272.2,272.2,0,0,1,705,675.9q-6.66,9.86-14.19,19.05a238.39,238.39,0,0,1-16.72,18.39c-4.81,4.74-9.67,9.42-14.81,13.79a261.37,261.37,0,0,1-35.77,25.61,285.62,285.62,0,0,1-44.38,21.35,255.84,255.84,0,0,1-25.25,8.11c-6.7,1.76-13.41,3.5-20.24,4.66-5.33.91-10.64,1.91-16,2.7-4.9.72-9.82,1.17-14.74,1.67-3.64.37-7.32.47-11,.48q-81.61,0-163.21,0c-4.48,0-9-.47-13.44-.77-3.18-.21-6.38-.38-9.53-.8-3.84-.5-7.64-1.23-11.45-1.9s-7.63-1.41-11.44-2.12a277.44,277.44,0,0,1-56.12-17.9A278.84,278.84,0,0,1,192,749.78a261.68,261.68,0,0,1-49.07-39.66c-3.11-3.23-6.09-6.61-9-10-3.45-4-6.86-8.14-10.15-12.32-4.54-5.76-8.65-11.84-12.63-18a188.49,188.49,0,0,1-11.63-20.28c-2.42-5-5.2-9.82-7.45-14.88A286.35,286.35,0,0,1,81.1,605.8a265.16,265.16,0,0,1-7.54-28.64c-1-4.72-1.86-9.46-2.73-14.2-.26-1.39-.33-2.81-.49-4.21-.45-3.74-1.07-7.48-1.32-11.21-.27-4.11-.82-8.2-1-12.34-.74-22-.19-44.08-.31-66.12s0-44.09,0-66.14,0-44.09,0-66.14a103.75,103.75,0,0,1,.46-11.7c.54-4.68.77-9.39,1.47-14,.66-4.43,1.06-8.89,1.8-13.3.66-3.94,1.51-7.84,2.32-11.75q2.4-11.58,5.92-22.87c1.79-5.74,3.78-11.42,5.8-17.09,1.27-3.56,2.68-7.08,4.15-10.56A298.67,298.67,0,0,1,104,206.25a250.46,250.46,0,0,1,18.62-28.47c4.75-6.35,9.93-12.35,15.21-18.28a232,232,0,0,1,20.52-20.13A277.08,277.08,0,0,1,238.13,91a259.48,259.48,0,0,1,30.27-9.85c4.32-1.09,8.63-2.25,13-3.19s8.54-1.61,12.81-2.4c2.2-.41,4.38-.85,6.59-1.19A42.33,42.33,0,0,1,305,74c3.53-.18,7-1.18,10.55-1,3.79-1.23,7.78-.28,11.62-1a14.92,14.92,0,0,1,2.84-.08q80,0,160,0c3.66,0,7.33.15,11,.46,3.28.28,6.53.89,9.8,1.3,1.64.21,3.29.28,4.94.45a231.05,231.05,0,0,1,33.18,6.29c5.71,1.43,11.35,3.09,17,4.88a261.75,261.75,0,0,1,25.21,9.49q12.85,5.61,25.15,12.37c7.16,3.93,14.06,8.32,20.81,12.92a270.3,270.3,0,0,1,27.35,21.51c2.91,2.59,5.67,5.38,8.47,8.11a224.38,224.38,0,0,1,17.52,19.09A279.35,279.35,0,0,1,712,199.09a264.47,264.47,0,0,1,14.25,26.54c3.58,7.7,6.91,15.51,9.8,23.51a304.1,304.1,0,0,1,9.72,33.26c1.4,5.94,2.48,11.94,3.49,18,.54,3.24.8,6.55,1.49,9.72.64,2.92.1,5.91,1,8.76a14,14,0,0,1,.11,3.19c.1,1.16.33,2.32.45,3.48s.24,2.35.25,3.52q.19,51.74.37,103.47ZM553.56,651.33c.72,0,1,.09,1.17,0,2.77-1.59,5.56-3.14,8.28-4.82a139.83,139.83,0,0,0,19.32-14.42,134.3,134.3,0,0,0,20.82-23.67A137.29,137.29,0,0,0,616.78,584c1.5-3.46,2.93-7,4.22-10.5a138.3,138.3,0,0,0,5.55-19.38c1-4.61,2-9.19,2.48-13.88a60.07,60.07,0,0,1,.67-6.66,38.52,38.52,0,0,0,.56-7.39,7.73,7.73,0,0,1,.12-2.47c.81-2.08.58-4.2.58-6.32q0-50.13,0-100.27V346a11.8,11.8,0,0,0-.16-3.53,21.86,21.86,0,0,1-.57-5.62c-.22-3.52-.51-7-.82-10.55a47.75,47.75,0,0,0-.63-4.91c-.82-4.14-1.87-8.25-2.6-12.41-1.42-8.08-4.15-15.75-7.12-23.33a150.27,150.27,0,0,0-8.69-18.21,158.6,158.6,0,0,0-12.74-19.17A132.35,132.35,0,0,0,585,234.39a129.88,129.88,0,0,0-23-17.77,147,147,0,0,0-29.17-13.69,190.6,190.6,0,0,0-32.55-7.77c-3.32.22-6.51-1.15-9.84-.76a2.78,2.78,0,0,1-1.41-.1c-1.93-.83-4-.58-6-.58q-71.28,0-142.58,0c-3.05,0-6.15-.41-9.15.64a2.51,2.51,0,0,1-1.06,0c-3.45-.39-6.83.46-10.18.89a146.47,146.47,0,0,0-17.31,3.24,171.64,171.64,0,0,0-24.51,8,141.41,141.41,0,0,0-24.33,13.08,122.93,122.93,0,0,0-16.19,12.71c-2.66,2.52-5.27,5.11-7.76,7.8-2.65,2.86-5.23,5.8-7.66,8.85a135.42,135.42,0,0,0-15.45,24.58c-1.88,3.81-3.72,7.66-5.26,11.62a168.37,168.37,0,0,0-5.82,17.45c-1.64,6.13-3,12.33-4,18.58-.56,3.35-.78,6.75-1.41,10.11a10.65,10.65,0,0,0,.09,4.39c.38,0,.51.08.59,0a4.79,4.79,0,0,0,.88-.58A169.15,169.15,0,0,1,225,312.07a183.64,183.64,0,0,1,28.63-12.28c6.49-2.14,13.12-3.73,19.77-5.23a103.69,103.69,0,0,1,12.85-2.12c3.28-.3,6.52-1.2,9.85-.82a1.94,1.94,0,0,0,1-.16,8.94,8.94,0,0,1,4.19-.53H405.55A7.5,7.5,0,0,1,408,291c3.29,1.18,6.79.32,10.14,1.25,2.35.64,4.89.56,7.34.87,1.51.19,3,.42,4.52.76,4.57,1.06,9.12,2.2,13.69,3.27a145,145,0,0,1,27.38,9.59,165.43,165.43,0,0,1,56.61,41.47,150.62,150.62,0,0,1,15.92,21.3,179.39,179.39,0,0,1,13.85,26.72A163.73,163.73,0,0,1,565,418.76c1.47,5.79,3.07,11.58,3.53,17.58,1,2,.5,4.19.9,6.27a86.08,86.08,0,0,1,1.18,10.13c.16,2,0,4,0,6,0,.82.14,1.64.24,2.46a29.55,29.55,0,0,1,.44,3.48q0,54.4,0,108.81a8.16,8.16,0,0,1-.22,2.81,12.64,12.64,0,0,0-.48,4.56c0,2.25.44,4.63-.14,6.72-.86,3.13-.5,6.31-1.14,9.45-.86,4.24-1.28,8.58-2.12,12.84a149,149,0,0,1-4.84,18.77c-1.81,5.37-3.36,10.84-5.95,15.93C555.38,646.68,554.59,648.89,553.56,651.33Zm-339.36-132c0,18.13.1,36.27-.06,54.4A99.63,99.63,0,0,0,215.72,592a91.58,91.58,0,0,0,6.06,21,13.32,13.32,0,0,0,2.33,3.94c1.76,1.9,3.47,3.87,5.12,5.88A94.63,94.63,0,0,0,242,635.24a135.81,135.81,0,0,0,31.45,19.81c4.19,1.91,8.51,3.55,12.81,5.2a138,138,0,0,0,18,5.32,93,93,0,0,0,10.67,2.19c4.56.5,9.06,1.61,13.7,1.43a3.26,3.26,0,0,1,1.4.12c1.82.82,3.72.57,5.6.58,17.9,0,35.8.08,53.69,0,6.6,0,13.21.52,19.82-.57,2.53-.42,5.13-.66,7.66-1.14a101.69,101.69,0,0,0,23.17-7.38,85.73,85.73,0,0,0,24-16.23,86.83,86.83,0,0,0,15.44-19.8,113.27,113.27,0,0,0,8.8-20.06c1.84-5.5,2.66-11.21,3.75-16.87a45.88,45.88,0,0,0,.8-8.44q.07-60.09,0-120.18a20.63,20.63,0,0,0-.11-2.84c-.39-2.67-.83-5.34-1.3-8-.51-2.89-1-5.81-1.65-8.67A98.34,98.34,0,0,0,479,413.53,85.16,85.16,0,0,0,458,389.28,90.32,90.32,0,0,0,439.13,378a94.56,94.56,0,0,0-33.35-8.46,4.56,4.56,0,0,1-1.4-.15,13.24,13.24,0,0,0-5.26-.55c-28.21,0-56.42,0-84.62,0a124.37,124.37,0,0,0-19.38,1.36,106,106,0,0,0-16.18,3.49,98.88,98.88,0,0,0-23.4,10.88A87.61,87.61,0,0,0,236,401.94c-1.07,1.26-2,2.62-3,4a95.45,95.45,0,0,0-10.07,17.45,93.39,93.39,0,0,0-5.86,17.44c-.64,3-1.22,6-1.71,9A64.12,64.12,0,0,0,214.19,460Q214.22,489.65,214.2,519.34Z"/><path class="cls-4" d="M464.36,520.09c0,9.95-.11,19.91.05,29.86a70.21,70.21,0,0,1-1.68,15.46,90.19,90.19,0,0,1-12.63,31.05,72.4,72.4,0,0,1-5.19,6.71c-1.82,2.17-3.79,4.22-5.66,6.36a58.53,58.53,0,0,1-14,11.28A96.35,96.35,0,0,1,395,632.67a89,89,0,0,1-18.33,1.55c-13.63.07-27.26,0-40.89,0-3.55,0-7.12.06-10.65-.27a74,74,0,0,1-12.87-2.29,131.63,131.63,0,0,1-13.71-4.78,77.69,77.69,0,0,1-19.46-11.53c-3.86-3.07-7.78-6.19-10.73-10.29-1.65-2.3-3.64-4.35-5.29-6.65a85.35,85.35,0,0,1-11.88-24.88,88.27,88.27,0,0,1-3.38-16.62,135.64,135.64,0,0,1-.51-13.8c-.06-17.54,0-35.08,0-52.62a26.55,26.55,0,0,1,.55-6.7c.5-1.92.27-4,.63-6a113.43,113.43,0,0,1,3.83-15.09A63.47,63.47,0,0,1,256.92,452c1.7-3.11,3-6.43,5.15-9.29a82.47,82.47,0,0,1,6.17-7.77c1.39-1.44,2.48-3.19,3.95-4.53A97.53,97.53,0,0,1,284,420.85a117.68,117.68,0,0,1,15.23-8.33,75.06,75.06,0,0,1,10.39-3.5c5.36-1.62,10.91-2,16.4-2.84a21.18,21.18,0,0,1,3.19-.1q26.85,0,53.69,0c4.41,0,8.69,1,13,1.62a72.06,72.06,0,0,1,23.37,8A67.68,67.68,0,0,1,434.55,426c2.06,1.95,4.35,3.68,6.27,5.75,6.14,6.61,11.51,13.79,15.22,22.08a96.88,96.88,0,0,1,7.41,24,57.91,57.91,0,0,1,.95,10.22C464.28,498.75,464.36,509.42,464.36,520.09Z"/><path class="cls-5" d="M464.36,520.09c0,9.95-.11,19.91.05,29.86a70.21,70.21,0,0,1-1.68,15.46,90.19,90.19,0,0,1-12.63,31.05,72.4,72.4,0,0,1-5.19,6.71c-1.82,2.17-3.79,4.22-5.66,6.36a58.53,58.53,0,0,1-14,11.28A96.35,96.35,0,0,1,395,632.67a89,89,0,0,1-18.33,1.55c-13.63.07-27.26,0-40.89,0-3.55,0-7.12.06-10.65-.27a74,74,0,0,1-12.87-2.29,131.63,131.63,0,0,1-13.71-4.78,77.69,77.69,0,0,1-19.46-11.53c-3.86-3.07-7.78-6.19-10.73-10.29-1.65-2.3-3.64-4.35-5.29-6.65a85.35,85.35,0,0,1-11.88-24.88,88.27,88.27,0,0,1-3.38-16.62,135.64,135.64,0,0,1-.51-13.8c-.06-17.54,0-35.08,0-52.62a26.55,26.55,0,0,1,.55-6.7c.5-1.92.27-4,.63-6a113.43,113.43,0,0,1,3.83-15.09A63.47,63.47,0,0,1,256.92,452c1.7-3.11,3-6.43,5.15-9.29a82.47,82.47,0,0,1,6.17-7.77c1.39-1.44,2.48-3.19,3.95-4.53A97.53,97.53,0,0,1,284,420.85a117.68,117.68,0,0,1,15.23-8.33,75.06,75.06,0,0,1,10.39-3.5c5.36-1.62,10.91-2,16.4-2.84a21.18,21.18,0,0,1,3.19-.1q26.85,0,53.69,0c4.41,0,8.69,1,13,1.62a72.06,72.06,0,0,1,23.37,8A67.68,67.68,0,0,1,434.55,426c2.06,1.95,4.35,3.68,6.27,5.75,6.14,6.61,11.51,13.79,15.22,22.08a96.88,96.88,0,0,1,7.41,24,57.91,57.91,0,0,1,.95,10.22C464.28,498.75,464.36,509.42,464.36,520.09Z"/></g></g></g></svg>