<svg xmlns="http://www.w3.org/2000/svg" viewBox="0 0 685.26 719.88"><defs><style>.cls-1{fill:#fff;}.cls-2{fill:#faa002;}</style></defs><title>Asset 1</title><g id="Layer_2" data-name="Layer 2"><g id="Layer_1-2" data-name="Layer 1"><path class="cls-1" d="M685.14,360.65q0,42.5,0,85c0,6.51-.14,13-.25,19.54a20.63,20.63,0,0,1-.41,2.79c-.07.46-.23.92-.26,1.38-.22,3.3-.36,6.6-.63,9.89-.18,2.22-.48,4.44-.83,6.64s-.86,4.36-1.25,6.55c-.59,3.35-1,6.74-1.73,10.06-1.41,6.53-2.74,13.1-4.55,19.53a213.26,213.26,0,0,1-7.08,21.9c-1.81,4.48-3.41,9.05-5.24,13.51-1.21,3-2.68,5.79-4,8.68a272.2,272.2,0,0,1-21.51,37.94q-6.68,9.86-14.2,19.05a236.37,236.37,0,0,1-16.72,18.39c-4.8,4.74-9.66,9.42-14.81,13.79a260.15,260.15,0,0,1-35.77,25.61,285.08,285.08,0,0,1-44.37,21.35,256.87,256.87,0,0,1-25.26,8.11c-6.7,1.76-13.4,3.5-20.24,4.66-5.33.91-10.64,1.91-16,2.7-4.9.72-9.82,1.17-14.73,1.67-3.64.37-7.33.47-11,.48q-81.6,0-163.21,0c-4.48,0-9-.47-13.44-.77-3.18-.21-6.37-.38-9.53-.8-3.83-.5-7.64-1.23-11.45-1.9S219,715,215.21,714.25a245.54,245.54,0,0,1-24.91-6.33,247,247,0,0,1-31.21-11.57,279.54,279.54,0,0,1-34.81-18.42,262,262,0,0,1-49.06-39.66c-3.12-3.23-6.09-6.61-9-10-3.46-4-6.86-8.14-10.16-12.32-4.54-5.76-8.65-11.84-12.63-18a191.92,191.92,0,0,1-11.63-20.28c-2.41-5-5.2-9.82-7.45-14.88A286.35,286.35,0,0,1,13.43,534a267.5,267.5,0,0,1-7.54-28.64c-1-4.72-1.86-9.46-2.73-14.2-.25-1.39-.32-2.81-.49-4.21-.44-3.74-1.06-7.48-1.31-11.21-.28-4.11-.83-8.2-1-12.34-.74-22-.18-44.08-.3-66.12s0-44.09,0-66.14S0,287,.08,265a106.16,106.16,0,0,1,.47-11.7c.53-4.68.77-9.39,1.46-14,.66-4.43,1.06-8.89,1.8-13.3.66-3.94,1.51-7.84,2.32-11.75q2.4-11.58,5.92-22.87c1.79-5.74,3.79-11.42,5.81-17.09,1.27-3.56,2.67-7.08,4.14-10.56A303.25,303.25,0,0,1,36.36,134.4,251.82,251.82,0,0,1,55,105.93c4.75-6.35,9.93-12.35,15.21-18.28A232,232,0,0,1,90.71,67.52a277.25,277.25,0,0,1,79.76-48.37A258.71,258.71,0,0,1,200.73,9.3c4.32-1.09,8.63-2.25,13-3.19s8.54-1.61,12.82-2.4c2.19-.41,4.38-.85,6.58-1.19,1.4-.22,2.82-.3,4.23-.38,3.54-.18,7-1.18,10.56-1,3.79-1.23,7.78-.28,11.62-1A14.81,14.81,0,0,1,262.35,0q80,0,160,0c3.66,0,7.34.15,11,.46,3.28.28,6.52.89,9.79,1.3,1.64.21,3.3.28,4.94.45a231.19,231.19,0,0,1,33.19,6.29c5.7,1.43,11.34,3.09,17,4.88a263.76,263.76,0,0,1,25.21,9.49q12.86,5.61,25.15,12.37c7.15,3.93,14,8.32,20.81,12.92a271.3,271.3,0,0,1,27.34,21.51c2.92,2.59,5.67,5.38,8.47,8.11a224.5,224.5,0,0,1,17.53,19.09,280.64,280.64,0,0,1,21.55,30.33,264.55,264.55,0,0,1,14.26,26.54c3.57,7.7,6.9,15.51,9.8,23.51a304.05,304.05,0,0,1,9.71,33.26c1.41,5.94,2.49,11.94,3.49,18,.55,3.24.81,6.55,1.5,9.72.63,2.92.09,5.91,1,8.76a14.6,14.6,0,0,1,.12,3.19c.09,1.16.32,2.32.44,3.48s.24,2.35.25,3.52q.2,51.74.38,103.47ZM485.9,579.48c.71,0,1,.09,1.16,0,2.77-1.59,5.56-3.14,8.28-4.82a140.53,140.53,0,0,0,19.33-14.42,134.71,134.71,0,0,0,20.82-23.67,137.29,137.29,0,0,0,13.63-24.41c1.49-3.46,2.92-7,4.22-10.5a138.3,138.3,0,0,0,5.55-19.38c1-4.61,1.94-9.19,2.47-13.88a60.06,60.06,0,0,1,.68-6.66,39.33,39.33,0,0,0,.55-7.39,8,8,0,0,1,.12-2.47c.82-2.08.59-4.2.59-6.32q0-50.13,0-100.27,0-35.56,0-71.12a11.48,11.48,0,0,0-.16-3.53,21.42,21.42,0,0,1-.56-5.62c-.23-3.52-.52-7-.83-10.55a45.12,45.12,0,0,0-.62-4.91c-.83-4.14-1.88-8.25-2.61-12.41-1.41-8.08-4.14-15.75-7.11-23.33a150.33,150.33,0,0,0-8.7-18.21A158.53,158.53,0,0,0,530,176.43a132.45,132.45,0,0,0-12.69-13.89,129.88,129.88,0,0,0-23-17.77,146.74,146.74,0,0,0-29.17-13.69,190.6,190.6,0,0,0-32.55-7.77c-3.31.22-6.51-1.15-9.84-.76a2.79,2.79,0,0,1-1.41-.1c-1.93-.83-4-.58-5.95-.58q-71.3,0-142.58,0c-3.06,0-6.16-.41-9.15.64a2.51,2.51,0,0,1-1.06,0c-3.45-.39-6.84.46-10.19.89a146.3,146.3,0,0,0-17.3,3.24,171.23,171.23,0,0,0-24.51,8,141.5,141.5,0,0,0-24.34,13.08A124.26,124.26,0,0,0,170,160.5c-2.66,2.52-5.27,5.11-7.76,7.8-2.65,2.86-5.23,5.8-7.66,8.85a135.37,135.37,0,0,0-15.44,24.58c-1.88,3.81-3.73,7.66-5.27,11.62a168.31,168.31,0,0,0-5.81,17.45c-1.65,6.13-3,12.33-4,18.58-.55,3.35-.77,6.75-1.41,10.1a10.69,10.69,0,0,0,.1,4.4c.37,0,.51.08.59,0a5.07,5.07,0,0,0,.87-.58,169.45,169.45,0,0,1,33.13-23.11A184.46,184.46,0,0,1,186,227.94c6.5-2.14,13.13-3.73,19.78-5.23a101.55,101.55,0,0,1,12.85-2.12c3.27-.3,6.51-1.2,9.85-.82a1.94,1.94,0,0,0,1-.16,8.91,8.91,0,0,1,4.18-.53H337.88a7.56,7.56,0,0,1,2.48.09c3.28,1.18,6.79.32,10.13,1.25,2.35.64,4.89.56,7.34.87a45.34,45.34,0,0,1,4.52.76c4.57,1.06,9.13,2.2,13.69,3.27a145.13,145.13,0,0,1,27.39,9.59A165.7,165.7,0,0,1,460,276.38,151.39,151.39,0,0,1,476,297.68a181.29,181.29,0,0,1,13.85,26.72,162.35,162.35,0,0,1,7.5,22.51c1.47,5.79,3.08,11.57,3.53,17.58,1,2,.5,4.19.9,6.27a88.27,88.27,0,0,1,1.19,10.13c.15,2,0,4,0,6a22.72,22.72,0,0,0,.23,2.46,29.59,29.59,0,0,1,.45,3.48q0,54.4,0,108.81a7.92,7.92,0,0,1-.22,2.81,12.87,12.87,0,0,0-.48,4.56c0,2.25.44,4.63-.13,6.72-.87,3.13-.5,6.31-1.15,9.45-.86,4.24-1.28,8.58-2.12,12.84a147.26,147.26,0,0,1-4.84,18.77c-1.8,5.37-3.36,10.84-6,15.93C487.71,574.83,486.93,577,485.9,579.48Zm-339.37-132c0,18.13.1,36.27-.05,54.4a98.76,98.76,0,0,0,1.58,18.28,91.55,91.55,0,0,0,6.05,21,13.76,13.76,0,0,0,2.33,3.94c1.77,1.9,3.48,3.87,5.12,5.88a95.3,95.3,0,0,0,12.73,12.36,135.75,135.75,0,0,0,31.44,19.81c4.19,1.91,8.51,3.55,12.82,5.2a138.31,138.31,0,0,0,17.94,5.32,93.91,93.91,0,0,0,10.67,2.19c4.56.5,9.07,1.61,13.7,1.43a3.3,3.3,0,0,1,1.41.12c1.81.82,3.72.57,5.6.58,17.89,0,35.79.08,53.68,0,6.61,0,13.22.52,19.82-.57,2.53-.42,5.14-.66,7.67-1.14a101.61,101.61,0,0,0,23.16-7.38,85.44,85.44,0,0,0,24-16.23,86.55,86.55,0,0,0,15.44-19.8,113.27,113.27,0,0,0,8.8-20.06c1.85-5.5,2.66-11.21,3.75-16.87a45,45,0,0,0,.8-8.44q.08-60.09,0-120.18a19.17,19.17,0,0,0-.11-2.84c-.39-2.67-.83-5.34-1.3-8-.51-2.89-.94-5.81-1.64-8.67a98.36,98.36,0,0,0-10.61-26.14,85.16,85.16,0,0,0-21.07-24.25,90.25,90.25,0,0,0-18.83-11.27,94.62,94.62,0,0,0-33.36-8.46,4.6,4.6,0,0,1-1.4-.15,13.22,13.22,0,0,0-5.26-.55c-28.21,0-56.41,0-84.62,0a124.54,124.54,0,0,0-19.38,1.36,106.47,106.47,0,0,0-16.18,3.49,99.06,99.06,0,0,0-23.4,10.88,87.83,87.83,0,0,0-19.56,17.39c-1.07,1.26-2,2.62-3,4a94.87,94.87,0,0,0-10.07,17.45A93.42,93.42,0,0,0,149.39,369c-.63,3-1.22,6-1.7,9a64.14,64.14,0,0,0-1.17,10.16Q146.55,417.79,146.53,447.49Z"/><path class="cls-2" d="M396.69,449.12c0,10-.11,19.92.05,29.87a70.2,70.2,0,0,1-1.67,15.46,90.61,90.61,0,0,1-12.63,31,71.57,71.57,0,0,1-5.2,6.71c-1.81,2.18-3.79,4.23-5.65,6.37a59,59,0,0,1-14,11.28,96.26,96.26,0,0,1-30.24,11.86A89.6,89.6,0,0,1,309,563.26c-13.62.07-27.25,0-40.88,0-3.56,0-7.13.07-10.66-.26a74.21,74.21,0,0,1-12.87-2.3,129.35,129.35,0,0,1-13.71-4.78,77.87,77.87,0,0,1-19.46-11.53c-3.86-3.07-7.78-6.19-10.73-10.29-1.65-2.29-3.64-4.34-5.29-6.64a85.28,85.28,0,0,1-11.88-24.89A87.37,87.37,0,0,1,180.13,486a130.2,130.2,0,0,1-.51-13.8c-.06-17.55,0-35.09,0-52.63a26.12,26.12,0,0,1,.54-6.7c.5-1.92.27-4,.63-6a114.49,114.49,0,0,1,3.84-15.08A62.78,62.78,0,0,1,189.26,381c1.69-3.11,3-6.44,5.14-9.3a82.34,82.34,0,0,1,6.17-7.76c1.39-1.45,2.48-3.2,4-4.54a95.66,95.66,0,0,1,11.84-9.55,117.79,117.79,0,0,1,15.23-8.33A76.92,76.92,0,0,1,242,338.05c5.37-1.62,10.92-2,16.4-2.83a21.31,21.31,0,0,1,3.2-.1q26.84,0,53.68,0c4.42,0,8.69,1,13,1.62a71.73,71.73,0,0,1,23.37,8,67.5,67.5,0,0,1,15.22,10.32c2.07,1.94,4.35,3.67,6.28,5.74a82,82,0,0,1,15.22,22.09,97.1,97.1,0,0,1,7.41,24,59,59,0,0,1,.95,10.22C396.61,427.79,396.69,438.46,396.69,449.12Z"/></g></g></svg>