<svg xmlns="http://www.w3.org/2000/svg" viewBox="0 0 238.23 744.7"><defs><style>.cls-1{fill:#fff;}.cls-2,.cls-3{fill:#faa002;}.cls-3{font-size:21px;font-family:Audiowide-Regular, Audiowide;}.cls-4{letter-spacing:0em;}.cls-5{letter-spacing:0em;}.cls-6{letter-spacing:-0.01em;}.cls-7{letter-spacing:-0.01em;}</style></defs><title>Asset 13</title><g id="Layer_2" data-name="Layer 2"><g id="Layer_1-2" data-name="Layer 1"><path class="cls-1" d="M.08,126.81c0-11.2-.21-22.41.05-33.6C.61,72.7,6.69,54,18.91,37.41A89.44,89.44,0,0,1,50.67,10.77,95.52,95.52,0,0,1,83.47.84,114.72,114.72,0,0,1,96,.12c16-.07,32.09-.25,48.13,0,24.57.45,46.24,8.66,64.42,25.4,10.84,10,18.44,22.18,23.54,36A94,94,0,0,1,237.8,88.3c.2,3.08.32,6.17.32,9.26,0,20,.19,40-.07,60a94.48,94.48,0,0,1-13.23,47.14,88.56,88.56,0,0,1-33.31,33,97,97,0,0,1-36,11.89,116.79,116.79,0,0,1-14.84.85c-15.28,0-30.57.09-45.86,0-20.13-.16-38.68-5.66-55.27-17.19-17.25-12-28.68-28.29-35-48.23A100.78,100.78,0,0,1,0,154.46V126.81ZM42.29,92.55c.46-.35.65-.48.81-.62,11.54-10.24,25.13-15.15,40.43-15.5,6.77-.16,13.54-.1,20.3-.05,5.19,0,10.39,0,15.56.33a57.68,57.68,0,0,1,30,10.46c16.38,11.59,24.53,27.81,25.24,47.62.48,13.05.11,26.13.12,39.2a63.6,63.6,0,0,1-5.72,26.81c-.17.39-.3.79-.48,1.27a2.52,2.52,0,0,0,.52-.09c.37-.18.73-.36,1.09-.56a46.48,46.48,0,0,0,12.67-10.07c8.81-10,13-21.95,13.17-35.12.27-19.89.12-39.78.1-59.67a58.4,58.4,0,0,0-5.94-26.38,48.34,48.34,0,0,0-22.84-22.55,57.44,57.44,0,0,0-24.91-5.5c-15.28-.07-30.56,0-45.84,0a63.66,63.66,0,0,0-13.21,1.32A51.45,51.45,0,0,0,60.12,54.57C51.82,61.67,46.66,70.7,44,81.19A49.63,49.63,0,0,0,42.29,92.55Zm105.84,63.61c0-5.95.07-11.91,0-17.85a49.55,49.55,0,0,0-.72-8.35c-1.89-9.94-7-17.68-16-22.63a37.09,37.09,0,0,0-18-4.28q-13.92-.06-27.83,0a42,42,0,0,0-10.23,1.19,31.46,31.46,0,0,0-15.59,8.89c-6.4,6.81-9.11,15.08-9.17,24.27-.07,12,0,24,0,36.06a54.77,54.77,0,0,0,.32,5.58c.85,7.59,2.5,10.83,8.09,15.87,9.45,8.52,20.74,12.64,33.28,13.29,7.27.38,14.58.17,21.87.15a36.81,36.81,0,0,0,5.75-.41c10.19-1.58,18.24-6.47,23.54-15.51a36.48,36.48,0,0,0,4.74-18.6C148.16,167.94,148.13,162.05,148.13,156.16Z"/><path class="cls-1" d="M165.74,300.73H3.6c-.42-1.33-.52-39.76-.12-42,.53,0,1.1-.08,1.66-.08h211.6a21.13,21.13,0,0,1,15,36.24c-3.78,3.64-7.58,7.26-11.37,10.9Q198.87,326.41,177.4,347,158,365.65,138.49,384.27l-53.8,51.58-11,10.52c-.46.44-1.35,1.14-2.08,1.79a8.51,8.51,0,0,0,1.81,0c.93,0,1.87,0,2.8,0H234.85v42H21.21a20.47,20.47,0,0,1-17-8.3,21.44,21.44,0,0,1-.73-24.61A25.77,25.77,0,0,1,7,453.32q26-24.88,51.93-49.74l48.39-46.35L158.77,308l5.93-5.69c.41-.4.8-.82,1.19-1.24Z"/><path class="cls-2" d="M193.13,547.17c.15,9.15.15,18.3.15,27.45v27.23q0,27.23,0,54.45t0,54.18c0,1.1-.06,2.21-.06,3.32a11.69,11.69,0,0,0,.2,1.28h2.18q17.85,0,35.7,0c3.62,0,3.28.38,3.28-3.29q0-92.06,0-184.1a29.68,29.68,0,0,0-.14-4.72,20.27,20.27,0,0,0-15.53-17,29.59,29.59,0,0,0-7.63-.48q-74.21,0-148.41,0c-1,0-2.1-.15-3.14-.1a69.6,69.6,0,0,0-16.84,2.54A50.56,50.56,0,0,0,31,513.33a54.23,54.23,0,0,0-14.9,13.46,54,54,0,0,0-6.9,11.05,83.85,83.85,0,0,0-4,12.42,53.14,53.14,0,0,0-1.65,13.67q0,73.59,0,147.17c0,.82,0,1.64,0,2.45A10.53,10.53,0,0,0,3.84,715h41v-4.12q0-73,.05-146A29,29,0,0,1,46,557.33,13.12,13.12,0,0,1,54.67,548a25.67,25.67,0,0,1,8.77-1.29H186.16Z"/><path class="cls-2" d="M140,696.14H100.43c-.35,0-.7,0-1.05,0-.8,0-1.18-.35-1.16-1.16,0-.47,0-.93,0-1.4V566.71c0-2.74-.16-2.61,2.53-2.6h36.75c.52,0,1,0,1.57,0a.84.84,0,0,1,.88.89c0,.46,0,.93,0,1.4V696.14Z"/><path class="cls-2" d="M82.44,194a26.5,26.5,0,0,1-10.58-6.26,29.08,29.08,0,0,1-8.58-15.83c-.77-4.2-.56-8.46-.55-12.7,0-6.35-.65-13.1.62-19.35a29.59,29.59,0,0,1,7.7-14.47c10-10.47,25.1-8.9,38.25-8.65a27.22,27.22,0,0,1,13.46,3.82,31.19,31.19,0,0,1,5.53,3.91,26.86,26.86,0,0,1,8,12.7c.32,1.15.71,2.32.92,3.5a23.28,23.28,0,0,1,.42,4q.06,11,0,22.06A28.61,28.61,0,0,1,128.23,188a25.75,25.75,0,0,1-9.87,5.81c-6,1.92-12,2.08-18.19,2.08-2.1,0-4.21.09-6.3,0A39.74,39.74,0,0,1,82.38,194"/><text class="cls-3" transform="translate(2.05 738.71)">FITN<tspan class="cls-4" x="54.34" y="0">E</tspan><tspan x="70.15" y="0">S</tspan><tspan class="cls-5" x="86.5" y="0">S</tspan><tspan x="102.74" y="0" xml:space="preserve"> NET</tspan><tspan class="cls-6" x="158.47" y="0">W</tspan><tspan x="179.4" y="0">OR</tspan><tspan class="cls-7" x="214.84" y="0">K</tspan></text></g></g></svg>