<svg xmlns="http://www.w3.org/2000/svg" viewBox="0 0 341 802"><defs><style>.cls-1{fill:#343434;stroke:#fff;stroke-miterlimit:10;}.cls-2{fill:#fff;}.cls-3,.cls-4{fill:#faa002;}.cls-4{font-size:21px;font-family:Audiowide-Regular, Audiowide;}.cls-5{letter-spacing:0em;}.cls-6{letter-spacing:0em;}.cls-7{letter-spacing:-0.01em;}.cls-8{letter-spacing:-0.01em;}</style></defs><title>Asset 14</title><g id="Layer_2" data-name="Layer 2"><g id="Layer_1-2" data-name="Layer 1"><rect class="cls-1" x="-230" y="231" width="801" height="340" transform="translate(571.5 230.5) rotate(90)"/><path class="cls-2" d="M51.47,157.26c0-11.2-.22-22.4.05-33.6.48-20.5,6.55-39.23,18.78-55.8a89.39,89.39,0,0,1,31.75-26.63,95.3,95.3,0,0,1,32.8-9.93,114.86,114.86,0,0,1,12.57-.72c16.05-.08,32.09-.25,48.13,0,24.57.45,46.24,8.65,64.42,25.4,10.84,10,18.44,22.18,23.54,36a94,94,0,0,1,5.68,26.77c.19,3.08.31,6.17.32,9.26,0,20,.18,40-.07,60a94.59,94.59,0,0,1-13.24,47.14,88.64,88.64,0,0,1-33.31,33,96.72,96.72,0,0,1-36,11.88,116.75,116.75,0,0,1-14.83.86c-15.29,0-30.58.09-45.86,0-20.13-.16-38.69-5.66-55.28-17.19-17.25-12-28.67-28.29-35-48.23a100.16,100.16,0,0,1-4.52-30.51q0-13.83,0-27.66ZM93.67,123c.46-.35.65-.48.82-.62,11.53-10.24,25.13-15.16,40.43-15.5,6.76-.16,13.53-.1,20.3,0,5.19,0,10.39,0,15.56.33a57.59,57.59,0,0,1,30,10.46c16.39,11.59,24.53,27.8,25.25,47.62.47,13.05.1,26.13.12,39.19a63.77,63.77,0,0,1-5.72,26.82c-.18.38-.31.79-.49,1.27a3.27,3.27,0,0,0,.52-.09c.37-.18.74-.36,1.09-.56a46.38,46.38,0,0,0,12.68-10.07c8.81-10.05,13-21.95,13.17-35.12.27-19.89.11-39.78.09-59.67a58.24,58.24,0,0,0-5.94-26.38,48.2,48.2,0,0,0-22.84-22.55,57.39,57.39,0,0,0-24.9-5.5c-15.28-.07-30.57,0-45.85,0a63.73,63.73,0,0,0-13.21,1.32A51.31,51.31,0,0,0,111.51,85c-8.31,7.1-13.46,16.13-16.18,26.62A50.75,50.75,0,0,0,93.67,123Zm105.84,63.6c0-6,.07-11.9,0-17.85a49.43,49.43,0,0,0-.72-8.34c-1.89-9.94-7-17.69-16-22.63a37,37,0,0,0-18-4.28q-13.9-.06-27.83,0a41.57,41.57,0,0,0-10.23,1.18,31.65,31.65,0,0,0-15.59,8.89c-6.4,6.82-9.11,15.08-9.16,24.28-.07,12,0,24,0,36.06a49.57,49.57,0,0,0,.32,5.58c.85,7.59,2.5,10.83,8.08,15.86,9.45,8.52,20.74,12.65,33.28,13.3,7.28.38,14.58.17,21.88.15a37,37,0,0,0,5.75-.41c10.19-1.59,18.23-6.47,23.53-15.51a36.4,36.4,0,0,0,4.74-18.6C199.54,198.4,199.51,192.51,199.51,186.61Z"/><path class="cls-2" d="M217.12,331.18H55c-.42-1.33-.52-39.76-.12-41.94.54,0,1.1-.08,1.67-.08H268.12a21.12,21.12,0,0,1,15,36.23c-3.78,3.65-7.58,7.27-11.36,10.9l-42.93,41.18-38.92,37.27-53.8,51.58-11,10.52c-.46.44-1.35,1.14-2.09,1.79a8.6,8.6,0,0,0,1.82,0c.93,0,1.86,0,2.8,0H286.23v42H72.59a20.49,20.49,0,0,1-17-8.3,21.49,21.49,0,0,1-.73-24.62,26.75,26.75,0,0,1,3.47-3.91q26-24.88,51.93-49.74l48.4-46.35,51.44-49.23,5.94-5.69c.41-.4.79-.82,1.19-1.24Z"/><path class="cls-3" d="M244.52,577.62c.14,9.15.14,18.31.15,27.46V740.93c0,1.11-.06,2.22-.06,3.33a8.26,8.26,0,0,0,.2,1.28H247q17.85,0,35.7,0c3.61,0,3.27.38,3.27-3.29q0-92.06,0-184.1a28.55,28.55,0,0,0-.15-4.72,20.25,20.25,0,0,0-15.52-17,29.64,29.64,0,0,0-7.64-.48q-74.21,0-148.41,0c-1,0-2.09-.15-3.14-.1a69.11,69.11,0,0,0-16.84,2.54,50.93,50.93,0,0,0-11.9,5.41,54.18,54.18,0,0,0-14.89,13.46,53.76,53.76,0,0,0-6.9,11,82.85,82.85,0,0,0-4,12.43A53.14,53.14,0,0,0,55,594.39Q55,668,55,741.56c0,.82,0,1.64,0,2.45a12.25,12.25,0,0,0,.22,1.41h41v-4.11q0-73,0-145.95a29.09,29.09,0,0,1,1.08-7.58,13.08,13.08,0,0,1,8.68-9.31,25.66,25.66,0,0,1,8.76-1.3H237.55Z"/><path class="cls-3" d="M191.34,726.6H151.82c-.35,0-.7,0-1,0-.8,0-1.19-.36-1.17-1.16,0-.47,0-.93,0-1.4V597.17c0-2.74-.16-2.61,2.52-2.61h36.75c.53,0,1,0,1.57,0a.82.82,0,0,1,.88.88c0,.47,0,.94,0,1.4V726.6Z"/><path class="cls-3" d="M133.82,224.48a26.5,26.5,0,0,1-10.58-6.26,29.06,29.06,0,0,1-8.57-15.84c-.78-4.19-.56-8.45-.55-12.7,0-6.34-.66-13.09.62-19.34a29.58,29.58,0,0,1,7.69-14.47c10-10.47,25.1-8.91,38.26-8.65A27.08,27.08,0,0,1,174.14,151a31.74,31.74,0,0,1,5.54,3.9,27,27,0,0,1,8,12.7c.31,1.16.71,2.32.92,3.51a23.16,23.16,0,0,1,.41,4q.06,11,0,22.06a28.61,28.61,0,0,1-9.38,21.28,25.5,25.5,0,0,1-9.87,5.82c-6,1.91-12,2.08-18.19,2.07-2.1,0-4.21.1-6.3,0a39.32,39.32,0,0,1-11.48-1.9"/><text class="cls-4" transform="translate(53.44 769.17)">FITN<tspan class="cls-5" x="54.34" y="0">E</tspan><tspan x="70.15" y="0">S</tspan><tspan class="cls-6" x="86.5" y="0">S</tspan><tspan x="102.74" y="0" xml:space="preserve"> NET</tspan><tspan class="cls-7" x="158.47" y="0">W</tspan><tspan x="179.4" y="0">OR</tspan><tspan class="cls-8" x="214.84" y="0">K</tspan></text></g></g></svg>