<svg xmlns="http://www.w3.org/2000/svg" viewBox="0 0 744.7 238.23"><defs><style>.cls-1{fill:#fff;}.cls-2,.cls-3{fill:#faa002;}.cls-3{font-size:21px;font-family:Audiowide-Regular, Audiowide;}.cls-4{letter-spacing:0em;}.cls-5{letter-spacing:0em;}.cls-6{letter-spacing:0em;}.cls-7{letter-spacing:0em;}.cls-8{letter-spacing:-0.01em;}.cls-9{letter-spacing:-0.01em;}</style></defs><title>Asset 4</title><g id="Layer_2" data-name="Layer 2"><g id="Layer_1-2" data-name="Layer 1"><path class="cls-1" d="M126.81,238.15c-11.2,0-22.41.21-33.6-.05-20.51-.48-39.24-6.56-55.8-18.78a89.26,89.26,0,0,1-26.64-31.76,95.45,95.45,0,0,1-9.93-32.8,114.58,114.58,0,0,1-.72-12.57c-.07-16-.25-32.09,0-48.13.45-24.57,8.66-46.24,25.4-64.41,10-10.85,22.18-18.45,36-23.55A94,94,0,0,1,88.3.43c3.08-.2,6.17-.32,9.26-.32,20,0,40-.18,60,.07a94.48,94.48,0,0,1,47.14,13.23,88.64,88.64,0,0,1,33,33.31,97,97,0,0,1,11.89,36,116.79,116.79,0,0,1,.85,14.84c0,15.29.09,30.57,0,45.86-.16,20.13-5.66,38.68-17.19,55.28-12,17.25-28.29,28.67-48.23,35a100.78,100.78,0,0,1-30.51,4.52H126.81ZM92.55,196c-.35-.47-.48-.66-.62-.82C81.69,183.6,76.78,170,76.43,154.7c-.16-6.77-.1-13.54-.05-20.3,0-5.19,0-10.39.33-15.56a57.71,57.71,0,0,1,10.46-30C98.76,72.44,115,64.29,134.79,63.58c13.05-.47,26.13-.11,39.2-.12a63.6,63.6,0,0,1,26.81,5.72c.39.18.79.3,1.27.49a2.52,2.52,0,0,0-.09-.53c-.18-.37-.36-.73-.56-1.09a46.48,46.48,0,0,0-10.07-12.67c-10-8.81-21.95-13-35.12-13.17-19.89-.27-39.78-.12-59.67-.09a58.14,58.14,0,0,0-26.38,5.94A48.27,48.27,0,0,0,47.63,70.89a57.44,57.44,0,0,0-5.5,24.91c-.07,15.28,0,30.56,0,45.85a63.63,63.63,0,0,0,1.32,13.2,51.45,51.45,0,0,0,11.14,23.26c7.1,8.3,16.13,13.46,26.62,16.17A50.18,50.18,0,0,0,92.55,196ZM156.16,90.1c-5.95,0-11.91-.07-17.85,0a48.52,48.52,0,0,0-8.35.71c-9.94,1.89-17.68,7-22.63,16a37,37,0,0,0-4.28,18q-.06,13.92,0,27.83a42,42,0,0,0,1.19,10.23,31.46,31.46,0,0,0,8.89,15.59c6.81,6.4,15.08,9.11,24.27,9.17,12,.07,24,0,36.06,0a52,52,0,0,0,5.58-.32c7.59-.85,10.83-2.5,15.87-8.08,8.52-9.46,12.64-20.75,13.29-33.29.38-7.27.17-14.58.15-21.87a36.81,36.81,0,0,0-.41-5.75c-1.58-10.19-6.47-18.24-15.51-23.54a36.48,36.48,0,0,0-18.6-4.74C167.94,90.07,162.05,90.1,156.16,90.1Z"/><path class="cls-1" d="M300.73,72.49V234.63c-1.33.42-39.76.52-42,.12,0-.53-.08-1.1-.08-1.66q0-105.79,0-211.6A20.72,20.72,0,0,1,267.54,4.1a20.64,20.64,0,0,1,27.39,2.43c3.64,3.78,7.26,7.58,10.9,11.37Q326.41,39.37,347,60.83q18.64,19.45,37.27,38.91,25.78,26.91,51.58,53.8,5.26,5.49,10.52,11c.44.46,1.14,1.35,1.79,2.08a8.51,8.51,0,0,0,0-1.81c0-.93,0-1.87,0-2.8V3.38h42V217a20.47,20.47,0,0,1-8.3,16.95,21.44,21.44,0,0,1-24.61.73,25.77,25.77,0,0,1-3.92-3.47q-24.88-25.93-49.74-51.93l-46.35-48.39L308,79.46q-2.83-3-5.69-5.93c-.4-.41-.82-.79-1.24-1.19Z"/><path class="cls-2" d="M547.17,45.1c9.15-.14,18.3-.15,27.45-.15H710.48c1.1,0,2.21.06,3.32.06a9.68,9.68,0,0,0,1.28-.2V42.63q0-17.85,0-35.7c0-3.62.38-3.28-3.29-3.28H527.68a29.68,29.68,0,0,0-4.72.14,20.27,20.27,0,0,0-17,15.53,29.59,29.59,0,0,0-.48,7.63q0,74.21,0,148.41c0,1-.15,2.1-.1,3.14a69.75,69.75,0,0,0,2.54,16.85,50.67,50.67,0,0,0,5.41,11.89A59.78,59.78,0,0,0,537.84,229a81.56,81.56,0,0,0,12.42,4,53.14,53.14,0,0,0,13.67,1.65q73.59,0,147.17,0c.82,0,1.64,0,2.45,0,.45,0,.88-.14,1.42-.22v-41h-4.12q-73,0-146,0a29.39,29.39,0,0,1-7.57-1.08,13.12,13.12,0,0,1-9.32-8.68,25.67,25.67,0,0,1-1.29-8.77V99.6q0-13.59,0-27.16,0-6.8,0-13.58V52.07Z"/><path class="cls-2" d="M696.14,98.27V137.8c0,.35,0,.7,0,1,0,.8-.35,1.18-1.16,1.16-.47,0-.93,0-1.4,0H566.71c-2.74,0-2.61.16-2.6-2.53V100.75c0-.53,0-1.06,0-1.58a.83.83,0,0,1,.89-.87c.46,0,.93,0,1.4,0H696.14Z"/><path class="cls-2" d="M194,155.8a26.53,26.53,0,0,1-6.26,10.57A29.08,29.08,0,0,1,171.93,175c-4.2.78-8.46.56-12.7.55-6.35,0-13.1.65-19.35-.62a29.66,29.66,0,0,1-14.47-7.69c-10.47-10-8.9-25.11-8.65-38.26a27.22,27.22,0,0,1,3.82-13.46,31.19,31.19,0,0,1,3.91-5.53,26.94,26.94,0,0,1,12.7-8c1.15-.32,2.32-.71,3.5-.92a24.33,24.33,0,0,1,4-.42q11-.06,22.06,0A28.61,28.61,0,0,1,188,110a25.75,25.75,0,0,1,5.81,9.87c1.92,6,2.08,12,2.08,18.2,0,2.1.09,4.2,0,6.3A39.67,39.67,0,0,1,194,155.85"/><text class="cls-3" transform="matrix(0, -1, 1, 0, 738.71, 236.18)">FITN<tspan class="cls-4" x="54.34" y="0">E</tspan><tspan class="cls-5" x="70.16" y="0">S</tspan><tspan class="cls-6" x="86.5" y="0">S</tspan><tspan class="cls-7" x="102.74" y="0" xml:space="preserve"> NET</tspan><tspan class="cls-8" x="158.47" y="0">W</tspan><tspan x="179.41" y="0">OR</tspan><tspan class="cls-9" x="214.84" y="0">K</tspan></text></g></g></svg>