<svg xmlns="http://www.w3.org/2000/svg" viewBox="0 0 802 341"><defs><style>.cls-1{fill:#343434;}.cls-1,.cls-2,.cls-4{stroke:#fff;stroke-miterlimit:10;}.cls-2,.cls-3,.cls-5{fill:#faa002;}.cls-2,.cls-4{stroke-width:5px;}.cls-4{fill:none;}.cls-5{font-size:21px;font-family:Audiowide-Regular, Audiowide;}.cls-6{letter-spacing:0em;}.cls-7{letter-spacing:0em;}.cls-8{letter-spacing:0em;}.cls-9{letter-spacing:0em;}.cls-10{letter-spacing:-0.01em;}.cls-11{letter-spacing:-0.01em;}</style></defs><title>Asset 5</title><g id="Layer_2" data-name="Layer 2"><g id="Layer_1-2" data-name="Layer 1"><rect class="cls-1" x="0.5" y="0.5" width="801" height="340"/><path class="cls-2" d="M157.26,289.53c-11.2,0-22.4.22-33.6,0-20.5-.48-39.23-6.55-55.8-18.78A89.39,89.39,0,0,1,41.23,239a95.3,95.3,0,0,1-9.93-32.8,114.86,114.86,0,0,1-.72-12.57c-.08-16.05-.25-32.09,0-48.13C31.07,120.88,39.27,99.21,56,81,66,70.19,78.2,62.59,92,57.49a94,94,0,0,1,26.77-5.68c3.08-.19,6.17-.31,9.26-.32,20,0,40-.18,60,.07A94.59,94.59,0,0,1,235.19,64.8a88.64,88.64,0,0,1,33,33.31,96.72,96.72,0,0,1,11.88,36,116.75,116.75,0,0,1,.86,14.83c0,15.29.09,30.58,0,45.86-.16,20.13-5.66,38.69-17.19,55.28-12,17.25-28.29,28.67-48.23,35a100.16,100.16,0,0,1-30.51,4.52H157.26ZM123,247.33c-.35-.46-.48-.65-.62-.82-10.24-11.53-15.16-25.13-15.5-40.43-.16-6.76-.1-13.53,0-20.3,0-5.19,0-10.39.33-15.56a57.59,57.59,0,0,1,10.46-30c11.59-16.39,27.8-24.53,47.62-25.25,13.05-.47,26.13-.1,39.19-.12a63.77,63.77,0,0,1,26.82,5.72c.38.18.79.31,1.27.49a3.27,3.27,0,0,0-.09-.52c-.18-.37-.36-.74-.56-1.09a46.38,46.38,0,0,0-10.07-12.68c-10.05-8.81-21.95-13-35.12-13.17-19.89-.27-39.78-.11-59.67-.09a58.24,58.24,0,0,0-26.38,5.94,48.2,48.2,0,0,0-22.55,22.84,57.39,57.39,0,0,0-5.5,24.9c-.07,15.28,0,30.57,0,45.85a63.73,63.73,0,0,0,1.32,13.21A51.31,51.31,0,0,0,85,229.49c7.1,8.31,16.13,13.46,26.62,16.18A50.75,50.75,0,0,0,123,247.33Zm63.6-105.84c-6,0-11.9-.07-17.85,0a49.43,49.43,0,0,0-8.34.72c-9.94,1.89-17.69,7-22.63,16a37,37,0,0,0-4.28,18q-.06,13.9,0,27.83a41.57,41.57,0,0,0,1.18,10.23,31.65,31.65,0,0,0,8.89,15.59c6.82,6.4,15.08,9.11,24.28,9.16,12,.07,24,0,36.06,0a49.57,49.57,0,0,0,5.58-.32c7.59-.85,10.83-2.5,15.86-8.08,8.52-9.45,12.65-20.74,13.3-33.28.38-7.28.17-14.58.15-21.88a37,37,0,0,0-.41-5.75c-1.59-10.19-6.47-18.23-15.51-23.53a36.4,36.4,0,0,0-18.6-4.74C198.4,141.46,192.51,141.49,186.61,141.49Z"/><path class="cls-2" d="M331.18,123.88V286c-1.33.42-39.76.52-41.94.12,0-.54-.08-1.1-.08-1.67q0-105.8,0-211.59a21.12,21.12,0,0,1,36.23-15c3.65,3.78,7.27,7.58,10.9,11.36l41.18,42.93q18.65,19.46,37.27,38.92l51.58,53.8,10.52,11c.44.46,1.14,1.35,1.79,2.09a8.6,8.6,0,0,0,0-1.82c0-.93,0-1.86,0-2.8V54.77h42V268.41a20.49,20.49,0,0,1-8.3,16.95,21.49,21.49,0,0,1-24.62.73,26.75,26.75,0,0,1-3.91-3.47q-24.88-26-49.74-51.93l-46.35-48.4-49.23-51.44-5.69-5.94c-.4-.41-.82-.79-1.24-1.19Z"/><path class="cls-2" d="M577.62,96.48c9.15-.14,18.31-.14,27.46-.15H740.93c1.11,0,2.22.06,3.33.06a8.26,8.26,0,0,0,1.28-.2V94q0-17.85,0-35.7c0-3.61.38-3.27-3.29-3.27H558.14a28.55,28.55,0,0,0-4.72.15,20.25,20.25,0,0,0-17,15.52,29.64,29.64,0,0,0-.48,7.64q0,74.21,0,148.41c0,1-.15,2.09-.1,3.14a69.11,69.11,0,0,0,2.54,16.84,50.93,50.93,0,0,0,5.41,11.9,59.91,59.91,0,0,0,24.5,21.79,82.85,82.85,0,0,0,12.43,4A53.14,53.14,0,0,0,594.39,286q73.59,0,147.17,0c.82,0,1.64,0,2.45,0a12.25,12.25,0,0,0,1.41-.22v-41h-4.11q-73,0-145.95,0a29.09,29.09,0,0,1-7.58-1.08,13.08,13.08,0,0,1-9.31-8.68,25.66,25.66,0,0,1-1.3-8.76V151q0-13.57,0-27.16V103.45Z"/><path class="cls-2" d="M726.6,149.66v39.52c0,.35,0,.7,0,1,0,.8-.36,1.19-1.16,1.17-.47,0-.93,0-1.4,0H597.17c-2.74,0-2.61.16-2.61-2.52q0-18.37,0-36.75c0-.53,0-1,0-1.57a.82.82,0,0,1,.88-.88c.47,0,.94,0,1.4,0H726.6Z"/><path class="cls-3" d="M224.48,207.18a26.5,26.5,0,0,1-6.26,10.58,29.06,29.06,0,0,1-15.84,8.57c-4.19.78-8.45.56-12.7.55-6.34,0-13.09.66-19.34-.62a29.58,29.58,0,0,1-14.47-7.69c-10.47-10-8.91-25.1-8.65-38.26A27.08,27.08,0,0,1,151,166.86a31.74,31.74,0,0,1,3.9-5.54,27,27,0,0,1,12.7-8c1.16-.31,2.32-.71,3.51-.92a23.16,23.16,0,0,1,4-.41q11-.06,22.06,0a28.61,28.61,0,0,1,21.28,9.38,25.5,25.5,0,0,1,5.82,9.87c1.91,6,2.08,12,2.07,18.19,0,2.1.1,4.21,0,6.3a39.32,39.32,0,0,1-1.9,11.48"/><path class="cls-4" d="M224.48,207.18a26.5,26.5,0,0,1-6.26,10.58,29.06,29.06,0,0,1-15.84,8.57c-4.19.78-8.45.56-12.7.55-6.34,0-13.09.66-19.34-.62a29.58,29.58,0,0,1-14.47-7.69c-10.47-10-8.91-25.1-8.65-38.26A27.08,27.08,0,0,1,151,166.86a31.74,31.74,0,0,1,3.9-5.54,27,27,0,0,1,12.7-8c1.16-.31,2.32-.71,3.51-.92a23.16,23.16,0,0,1,4-.41q11-.06,22.06,0a28.61,28.61,0,0,1,21.28,9.38,25.5,25.5,0,0,1,5.82,9.87c1.91,6,2.08,12,2.07,18.19,0,2.1.1,4.21,0,6.3a39.32,39.32,0,0,1-1.9,11.48"/><text class="cls-5" transform="matrix(0, -1, 1, 0, 769.17, 287.56)">FITN<tspan class="cls-6" x="54.34" y="0">E</tspan><tspan class="cls-7" x="70.16" y="0">S</tspan><tspan class="cls-8" x="86.5" y="0">S</tspan><tspan class="cls-9" x="102.74" y="0" xml:space="preserve"> NET</tspan><tspan class="cls-10" x="158.47" y="0">W</tspan><tspan x="179.41" y="0">OR</tspan><tspan class="cls-11" x="214.84" y="0">K</tspan></text></g></g></svg>